<?xml version="1.0" encoding="UTF-8" standalone="no"?>
<!DOCTYPE svg PUBLIC "-//W3C//DTD SVG 1.1//EN" "http://www.w3.org/Graphics/SVG/1.1/DTD/svg11.dtd">
<svg width="100%" height="100%" viewBox="0 0 2540 487" version="1.1" xmlns="http://www.w3.org/2000/svg" xmlns:xlink="http://www.w3.org/1999/xlink" xml:space="preserve" xmlns:serif="http://www.serif.com/" style="fill-rule:evenodd;clip-rule:evenodd;stroke-linejoin:round;stroke-miterlimit:2;">
    <g transform="matrix(1,0,0,1,-8780,-4)">
        <g id="logotyp_1" transform="matrix(0.723906,0,0,0.19619,8780.57,4.00662)">
            <rect x="0" y="0" width="3507.87" height="2480.32" style="fill:none;"/>
            <clipPath id="_clip1">
                <rect x="0" y="0" width="3507.87" height="2480.32"/>
            </clipPath>
            <g clip-path="url(#_clip1)">
                <g transform="matrix(6.43298,-2.90688e-15,-7.87812e-16,-23.7365,-2262.88,19887.1)">
                    <path d="M366.64,786.77L366.64,734.921L351.762,734.921L351.762,794.23C351.762,818.338 371.365,837.863 395.574,837.863L397.174,837.844L397.174,823.035L395.574,823.035C382.194,823.022 370.912,813.957 367.615,801.66L387.739,801.66L387.739,786.77L366.64,786.77Z" style="fill:rgb(47,48,47);"/>
                </g>
                <g transform="matrix(6.43298,8.65421e-31,-1.21887e-31,23.7365,-1495.44,-17392.4)">
                    <path d="M366.64,783.788L366.64,794.23C366.64,807.517 375.707,818.707 388.004,822.031L388.004,837.215C367.407,833.647 351.762,815.767 351.762,794.23L351.762,733.833L366.64,733.833L366.64,768.898L388.004,768.898L388.004,783.788L366.64,783.788Z" style="fill:rgb(47,48,47);"/>
                </g>
                <g transform="matrix(6.43298,2.90688e-15,-7.87812e-16,23.7365,-82.4605,-17407.6)">
                    <path d="M403.029,823.035L395.574,823.035C379.615,823.019 366.64,810.125 366.64,794.23L366.64,734.471L351.762,734.471L351.762,794.23C351.762,818.338 371.365,837.863 395.574,837.863L403.029,837.844L403.029,823.035Z" style="fill:rgb(47,48,47);fill-rule:nonzero;"/>
                </g>
                <g transform="matrix(0.895065,0,0,32.454,-113.023,-39761.2)">
                    <rect x="452.723" y="1269.37" width="107.022" height="31.054" style="fill:rgb(47,48,47);"/>
                </g>
                <g transform="matrix(0.895065,0,0,32.454,663.324,-39761.2)">
                    <rect x="452.723" y="1269.37" width="107.022" height="31.054" style="fill:rgb(47,48,47);"/>
                </g>
                <g transform="matrix(0.772478,-3.76082e-16,9.18604e-16,-53.3657,2709.67,69394.4)">
                    <path d="M452.723,1269.37L452.723,1299.86L576.772,1299.86L576.772,1282.07C623.804,1283.82 681.028,1284.86 742.726,1284.86C902.783,1284.86 1032.73,1277.91 1032.73,1269.37C1032.73,1260.82 902.783,1253.88 742.726,1253.88C582.669,1253.88 452.723,1260.82 452.723,1269.37ZM559.238,1269.37C559.238,1263.96 641.456,1259.57 742.726,1259.57C843.996,1259.57 926.214,1263.96 926.214,1269.37C926.214,1274.78 843.996,1279.17 742.726,1279.17C646.075,1279.17 566.778,1275.17 559.745,1270.1L559.745,1269.37L559.238,1269.37Z" style="fill:rgb(47,48,47);"/>
                </g>
                <g transform="matrix(0.895065,0,0,51.0124,2481.17,-63888.4)">
                    <path d="M424.094,1298.71C386.419,1300.18 342.286,1301.03 295.123,1301.03C156.987,1301.03 44.838,1293.77 44.838,1284.82C44.838,1275.88 156.987,1268.62 295.123,1268.62C354.831,1268.62 409.683,1269.98 452.723,1272.24L452.723,1269.37L559.745,1269.37L559.745,1300.42L424.094,1300.42L424.094,1298.71ZM452.723,1283.81C444.889,1278.63 377.268,1274.57 295.123,1274.57C207.723,1274.57 136.765,1279.16 136.765,1284.82C136.765,1290.48 207.723,1295.08 295.123,1295.08C377.268,1295.08 444.889,1291.02 452.723,1285.83L452.723,1283.81Z" style="fill:rgb(47,48,47);"/>
                </g>
                <g transform="matrix(0.895605,0,0,11.3818,-113.325,-13589.3)">
                    <rect x="452.723" y="1269.37" width="107.022" height="31.054" style="fill:rgb(47,48,47);"/>
                </g>
                <g transform="matrix(0.895605,0,0,11.3818,663.022,-13589.3)">
                    <rect x="452.723" y="1269.37" width="107.022" height="31.054" style="fill:rgb(47,48,47);"/>
                </g>
                <g transform="matrix(0.934072,0,0,3.44655,-596.793,-2001.88)">
                    <path d="M1380.4,1300.42C1248.04,1300.42 1140.57,1192.95 1140.57,1060.59C1140.57,928.221 1248.04,820.755 1380.4,820.755L1380.4,908.843C1296.65,908.843 1228.66,976.838 1228.66,1060.59C1228.66,1144.34 1296.65,1212.33 1380.4,1212.33L1380.4,1300.42Z" style="fill:rgb(47,48,47);"/>
                </g>
                <g transform="matrix(0.934072,0,0,3.44655,157.956,-2001.88)">
                    <path d="M1380.4,820.755C1512.77,820.755 1620.24,928.221 1620.24,1060.59C1620.24,1192.95 1512.77,1300.42 1380.4,1300.42C1248.04,1300.42 1140.57,1192.95 1140.57,1060.59C1140.57,928.221 1248.04,820.755 1380.4,820.755ZM1380.4,908.843C1296.65,908.843 1228.66,976.838 1228.66,1060.59C1228.66,1144.34 1296.65,1212.33 1380.4,1212.33C1464.15,1212.33 1532.15,1144.34 1532.15,1060.59C1532.15,976.838 1464.15,908.843 1380.4,908.843Z" style="fill:rgb(47,48,47);"/>
                </g>
                <g transform="matrix(0.895065,0,0,3.30262,263.019,-38763.3)">
                    <path d="M1747.36,12104.1L1747.27,12104.1L1747.27,12476.7L1640.25,12476.7L1640.25,11997.1L1747.36,11997.1L1747.36,12104.1ZM1814.84,11997.1L1843.97,11997.1C1893.07,11997.1 1938.75,12011.9 1976.78,12037.2C2003.24,12054.9 2026.01,12077.6 2043.65,12104.1C2069.01,12142.1 2083.8,12187.8 2083.8,12236.9L2083.8,12476.7L1976.78,12476.7L1976.78,12236.9C1976.78,12163.6 1917.27,12104.1 1843.97,12104.1L1814.84,12104.1L1814.84,11997.1Z" style="fill:rgb(47,48,47);"/>
                </g>
            </g>
        </g>
    </g>
</svg>
