<svg xmlns="http://www.w3.org/2000/svg" version="1.1" xmlns:xlink="http://www.w3.org/1999/xlink" xmlns:svgjs="http://svgjs.dev/svgjs" width="1000" height="1000"><g clip-path="url(#SvgjsClipPath1225)"><rect width="1000" height="1000" fill="#c57b2c"></rect><g transform="matrix(0.23333333333333334,0,0,0.23333333333333334,294.94135833333326,150)"><svg xmlns="http://www.w3.org/2000/svg" version="1.1" xmlns:xlink="http://www.w3.org/1999/xlink" xmlns:svgjs="http://svgjs.dev/svgjs" width="1757.6455" height="3000"><svg width="1757.6455" height="3000" viewBox="0 0 1757.6455 3000" version="1.1" xml:space="preserve" style="clip-rule:evenodd;fill-rule:evenodd;stroke-linejoin:round;stroke-miterlimit:2" id="svg7" sodipodi:docname="Logomark_basic field_white.svg" inkscape:version="1.3.2 (091e20e, 2023-11-25, custom)" xmlns:inkscape="http://www.inkscape.org/namespaces/inkscape" xmlns:sodipodi="http://sodipodi.sourceforge.net/DTD/sodipodi-0.dtd" xmlns="http://www.w3.org/2000/svg" xmlns:svg="http://www.w3.org/2000/svg"><defs id="defs7"><clipPath id="SvgjsClipPath1225"><rect width="1000" height="1000" x="0" y="0" rx="200" ry="200"></rect></clipPath></defs><sodipodi:namedview id="namedview7" pagecolor="#ffffff" bordercolor="#000000" borderopacity="0.25" inkscape:showpageshadow="2" inkscape:pageopacity="0.0" inkscape:pagecheckerboard="0" inkscape:deskcolor="#d1d1d1" inkscape:zoom="0.084406144" inkscape:cx="3370.6077" inkscape:cy="3737.8796" inkscape:current-layer="svg7"></sodipodi:namedview>
    <g transform="matrix(6.2660517,0,0,6.2660517,-47194.248,-16787.9)" id="g7" style="fill:#ffffff">
        <g id="sygnet_pole_podstawowe_3" transform="matrix(0.114609,0,0,0.242411,7470.63,2617.69)" style="fill:#ffffff">
            
            <g transform="matrix(5.64624,0,0,2.66947,-2128.07,-1521.19)" id="g6" style="fill:#ffffff">
                <g id="g5" style="fill:#ffffff">
                    <g id="g4" style="fill:#ffffff">
                        <g transform="matrix(7.18716,0,0,-7.18716,-2056.84,6686.73)" id="g1" style="fill:#ffffff">
                            <path d="m 366.64,786.77 v -51.849 h -14.878 v 59.309 c 0,24.108 19.603,43.633 43.812,43.633 l 1.6,-0.019 v -14.809 h -1.6 c -13.38,-0.013 -24.662,-9.078 -27.959,-21.375 h 20.124 v -14.89 z" style="fill:#ffffff" id="path1"></path>
                        </g>
                        <g transform="matrix(1,0,0,9.82674,345.055,-11374.2)" id="g2" style="fill:#ffffff">
                            <rect x="452.72299" y="1269.37" width="107.022" height="31.054001" style="fill:#ffffff" id="rect2"></rect>
                        </g>
                        <g transform="matrix(1.0006,0,0,3.4463,344.717,-3449.56)" id="g3" style="fill:#ffffff">
                            <rect x="452.72299" y="1269.37" width="107.022" height="31.054001" style="fill:#ffffff" id="rect3"></rect>
                        </g>
                    </g>
                </g>
            </g>
        </g>
    </g>
</svg></svg></g></g></svg>